# xmcd CD database file
#
# Track frame offsets:
#	150
#	16020
#	36422
#	49925
#	65707
#	84465
#	98345
#	108402
#	127987
#	142545
#	157012
#	177287
#	191862
#	209270
#	224072
#	238277
#	252935
#	264942
#	291762
#
# Disc length: 4100 seconds
#
# Revision: 1
# Processed by: cddbd v1.5.2PL0 Copyright (c) Steve Scherf et al.
# Submitted via: CDex 1.51
#
DISCID=14100213
DTITLE=Various Artist - The Golden Swing Era
DYEAR=1991
DGENRE=Jazz
TTITLE0=Glenn Miller - In The Mood
TTITLE1=Glenn Miller - Moonlight Serenade
TTITLE2=Duke Ellington - Take The A Train
TTITLE3=Les Brown - Sentimental Journey
TTITLE4=Count Basie - One O'Clock Jump
TTITLE5=Artie Shaw - Begin The Beguine
TTITLE6=Benny Goodman - Let's Dance
TTITLE7=Benny Goodman - Sing, Sing, Sing
TTITLE8=Les Brown - Blue Moon
TTITLE9=Glenn Miller - A String Of Pearls
TTITLE10=Woody Herman - Woodchopper's Ball
TTITLE11=Tommy Dorsey - Song Of India
TTITLE12=Benny Goodman - Don't Be That Way
TTITLE13=Tommy and Jimmy Dorsey - Green Eyes
TTITLE14=Count Basie - Jumping' At The Woodside
TTITLE15=Tommy and Jimmy Dorsey - Marie
TTITLE16=Harry James - King Side Blues
TTITLE17=Duke Ellington - Rockin' In Rhythm
TTITLE18=Artie Shaw - Star Dust
EXTD=YEAR: 1991
EXTT0=
EXTT1=
EXTT2=
EXTT3=
EXTT4=
EXTT5=
EXTT6=
EXTT7=
EXTT8=
EXTT9=
EXTT10=
EXTT11=
EXTT12=
EXTT13=
EXTT14=
EXTT15=
EXTT16=
EXTT17=
EXTT18=
PLAYORDER=
